<?xml version="1.0" encoding="UTF-8"?>
<svg version="1.1" xmlns="http://www.w3.org/2000/svg" width="500" height="500">
<path d="M0 0 C165 0 330 0 500 0 C500 165 500 330 500 500 C335 500 170 500 0 500 C0 335 0 170 0 0 Z " fill="#1A1A1A" transform="translate(0,0)"/>
<path d="M0 0 C165 0 330 0 500 0 C500 165 500 330 500 500 C335 500 170 500 0 500 C0 335 0 170 0 0 Z M187.1875 37.1875 C186.08494873 37.49083252 184.98239746 37.79416504 183.84643555 38.10668945 C160.43883355 44.71523938 137.69592554 54.55238995 118 69 C117.03578125 69.69351563 116.0715625 70.38703125 115.078125 71.1015625 C97.45315736 84.02349474 81.28080699 98.65622986 68.26757812 116.28369141 C67.01057906 117.98567589 65.7327368 119.67044998 64.453125 121.35546875 C57.69406324 130.39194104 52.21374102 140.0066291 47 150 C46.65227539 150.65210449 46.30455078 151.30420898 45.94628906 151.97607422 C36.11515962 170.58808074 28.91814734 192.16238886 26 213 C25.74053589 214.57950439 25.74053589 214.57950439 25.47583008 216.19091797 C23.87791159 226.55144544 23.66069584 236.78729752 23.68432617 247.2590332 C23.6874766 250.16591291 23.66396936 253.07176144 23.63867188 255.97851562 C23.4512511 311.65928422 47.83332601 364.20464558 86 404 C86.89589844 404.94875 87.79179688 405.8975 88.71484375 406.875 C120.60500373 439.84221384 167.22127272 462.79434964 212.76953125 467.60546875 C216 468 216 468 219 469 C220.39669455 469.10528589 221.79770845 469.1583996 223.19824219 469.17700195 C224.04550873 469.18965591 224.89277527 469.20230988 225.76571655 469.21534729 C226.68349884 469.2229155 227.60128113 469.2304837 228.546875 469.23828125 C229.50212067 469.24798447 230.45736633 469.25768768 231.44155884 469.26768494 C234.5444148 469.29271684 237.64705299 469.30522519 240.75 469.3125 C241.79988098 469.31511841 242.84976196 469.31773682 243.93145752 469.32043457 C259.05976164 469.32449921 273.27603116 468.72766998 288 465 C289.4248991 464.68093046 290.85066664 464.36571037 292.27734375 464.0546875 C329.28222409 455.72152742 362.84966436 437.53339967 390.75390625 412.0234375 C392.52725596 410.42588072 394.31683982 408.91616508 396.1875 407.4375 C399.05803735 404.94970096 401.4516873 402.35715697 403.90234375 399.46484375 C405.47493735 397.61697306 407.06743203 395.80549381 408.69140625 394.00390625 C436.21525426 363.16751013 453.68942314 323.6874443 460 283 C460.17789063 281.87319824 460.17789063 281.87319824 460.359375 280.72363281 C468.67996578 225.3273186 454.28424617 167.32470236 421.54101562 121.97949219 C416.37090405 115.02840767 410.7890074 108.47528591 404.91796875 102.10546875 C403.34902735 100.38314815 401.88041241 98.63891072 400.4375 96.8125 C397.88214995 93.86401917 395.17284807 91.41720262 392.203125 88.8984375 C390.72533002 87.62501842 389.27703089 86.31660949 387.859375 84.9765625 C366.43911456 64.79488855 338.738354 50.34474938 311 41 C310.34918457 40.77860352 309.69836914 40.55720703 309.02783203 40.32910156 C296.61661546 36.18696067 283.91375917 33.96612521 271 32 C269.94804443 31.82275391 268.89608887 31.64550781 267.81225586 31.46289062 C263.15246281 30.89709058 258.57636692 30.81869032 253.88671875 30.796875 C252.43408379 30.78832489 252.43408379 30.78832489 250.95210266 30.77960205 C248.90387043 30.77018484 246.85562328 30.76363116 244.80737305 30.75976562 C241.73522933 30.7501494 238.6637814 30.71913173 235.59179688 30.6875 C218.81393598 30.595649 203.36392495 32.72213943 187.1875 37.1875 Z " fill="#FEFEFE" transform="translate(0,0)"/>
<path d="M0 0 C0 10.56 0 21.12 0 32 C-11.875 32.3125 -11.875 32.3125 -15.55419922 32.38793945 C-27.91494585 32.80130535 -36.52577472 35.52577472 -45.3125 44.3125 C-49.52520394 51.02162109 -50.28902891 57.25903167 -50.375 65.0625 C-50.38885742 65.81813232 -50.40271484 66.57376465 -50.41699219 67.35229492 C-50.35323923 75.06724193 -48.05128099 82.04207883 -43 88 C-30.34825721 97.65403508 -15.18084416 98.68817227 0.16162109 96.72314453 C18.96208472 93.49746265 35.30742237 79.64432877 46.7265625 64.9140625 C49.37991096 61.5130351 52.17569963 58.25907948 55 55 C58.5293873 50.91916313 61.96975866 46.7991571 65.3125 42.5625 C74.14397762 31.72751113 84.18175832 21.53802805 96 14 C97.41152344 13.08154297 97.41152344 13.08154297 98.8515625 12.14453125 C119.32199754 -0.52121286 143.01062633 -3.04429112 166.29296875 2.02734375 C183.94865004 6.65986708 199.08336687 13.9928782 208.875 29.9375 C218.02240727 46.6018739 219.29523242 70.879545 214.3125 89.0625 C213.5970272 91.06234584 212.83106375 93.04535994 212 95 C211.649375 95.89074219 211.29875 96.78148437 210.9375 97.69921875 C204.74689287 111.7355606 192.67582714 120.51399553 178.76171875 125.95703125 C177.85035156 126.30121094 176.93898438 126.64539063 176 127 C175.2157666 127.32846924 174.4315332 127.65693848 173.62353516 127.99536133 C163.7595607 131.77260448 153.19648623 131.24398201 142.8125 131.125 C141.27279232 131.11494397 139.73307824 131.10582279 138.19335938 131.09765625 C134.4619475 131.0775841 130.73144562 131.03840253 127 131 C127 121.1 127 111.2 127 101 C140.25 100.6875 140.25 100.6875 144.34863281 100.61206055 C156.64882051 100.24412917 169.878919 98.69619928 178.75 89.375 C186.20201268 80.06424732 186.96477848 70.51778753 186 59 C185.42988486 55.68767813 184.54843722 52.977304 183 50 C182.65582031 49.31679687 182.31164062 48.63359375 181.95703125 47.9296875 C177.41459273 40.57792547 168.48706492 36.35990658 160.2890625 34.328125 C140.63753845 32.36764042 124.96087903 33.61584645 109 46 C104.83418377 49.4936168 100.90645754 53.22134975 97 57 C96.26910156 57.6909375 95.53820312 58.381875 94.78515625 59.09375 C90.3061192 63.42200758 86.38593198 68.09136732 82.484375 72.94140625 C78.23126175 78.17755039 73.82588832 83.28210972 69.40625 88.37792969 C68.15243258 89.82417326 66.90396655 91.27505225 65.65625 92.7265625 C50.55937579 109.95669068 31.9622313 124.52976169 9 129 C8.12730469 129.18433594 7.25460938 129.36867188 6.35546875 129.55859375 C-16.56926285 132.57430349 -41.09603356 129.70194468 -60.27734375 116.15625 C-71.99388348 106.87715397 -79.11193763 92.77325993 -81 78 C-82.14068013 57.44427887 -81.24976966 38.39442189 -67.75 21.75 C-57.78433318 11.06471173 -44.13723799 4.80147367 -30 2 C-28.61941406 1.69255859 -28.61941406 1.69255859 -27.2109375 1.37890625 C-18.12668766 -0.43544117 -9.23063291 -0.13985807 0 0 Z " fill="#E5E3E3" transform="translate(188,182)"/>
<path d="M0 0 C70.93778604 0 70.93778604 0 82.9375 11.375 C83.99046292 12.55544027 85.01346406 13.76350617 86 15 C86.44730469 15.54785156 86.89460938 16.09570312 87.35546875 16.66015625 C90.50951419 21.07581987 92.16266481 25.94379558 93.8125 31.0625 C94.03180176 31.73531006 94.25110352 32.40812012 94.47705078 33.10131836 C95.81107621 37.50338692 96.21135791 41.35616481 96 46 C94.81921875 46.54269531 93.6384375 47.08539063 92.421875 47.64453125 C90.86446953 48.36694222 89.30718414 49.08961208 87.75 49.8125 C86.58404297 50.34713867 86.58404297 50.34713867 85.39453125 50.89257812 C81.60735028 52.65669234 78.30078941 54.41002415 75 57 C74.34 57 73.68 57 73 57 C72.97083496 56.44650879 72.94166992 55.89301758 72.91162109 55.32275391 C72.51824922 39.84795673 72.51824922 39.84795673 65 27 C61.77174835 25.12109643 58.60384116 23.94556228 55 23 C54.13834229 22.74307373 54.13834229 22.74307373 53.25927734 22.48095703 C50.32035669 21.85531691 47.48760209 21.77915098 44.484375 21.68359375 C43.23398438 21.64169922 41.98359375 21.59980469 40.6953125 21.55664062 C39.39335937 21.51732422 38.09140625 21.47800781 36.75 21.4375 C35.43257812 21.39431641 34.11515625 21.35113281 32.7578125 21.30664062 C29.50531212 21.20058083 26.25273608 21.09851976 23 21 C23.02331642 22.64585083 23.02331642 22.64585083 23.04710388 24.32495117 C23.18921406 34.68244193 23.29403855 45.03973404 23.3626852 55.39797974 C23.39916463 60.72292825 23.44861832 66.04708765 23.52807617 71.37158203 C23.60432468 76.51339432 23.64603007 81.65444929 23.6641407 86.79678345 C23.67704105 88.75521767 23.70223348 90.71361201 23.7401104 92.67172241 C24.06096404 109.9513474 24.06096404 109.9513474 19.62792969 115.1003418 C17.77386475 116.70365906 17.77386475 116.70365906 16 118 C14.64841797 119.30904297 14.64841797 119.30904297 13.26953125 120.64453125 C12.45871094 121.35996094 11.64789063 122.07539063 10.8125 122.8125 C9.99394531 123.54082031 9.17539063 124.26914062 8.33203125 125.01953125 C2.46745562 130 2.46745562 130 0 130 C0 87.1 0 44.2 0 0 Z " fill="#E5E3E3" transform="translate(207,137)"/>
<path d="M0 0 C0.11663897 10.02386308 0.20508885 20.04756067 0.25906086 30.07196808 C0.28498492 34.72840101 0.32006201 39.38436449 0.37719727 44.04052734 C0.43213902 48.54692596 0.46154921 53.05287747 0.47438622 57.55958557 C0.48351605 59.26574223 0.50133893 60.9718787 0.52865028 62.67784119 C0.77638951 78.81702469 -1.61073231 93.9426498 -13.03125 106.17578125 C-24.05986525 116.7966484 -37.63563932 118.32183006 -52.34765625 118.1953125 C-53.60009628 118.1924826 -54.85253632 118.18965271 -56.14292908 118.18673706 C-59.44238106 118.17749154 -62.74163072 118.15958161 -66.04101562 118.1373291 C-69.41989649 118.11672119 -72.79880806 118.10759339 -76.17773438 118.09765625 C-82.78531544 118.07739381 -89.39240111 118.03823104 -96 118 C-96 106.78 -96 95.56 -96 84 C-92.37 82.35 -88.74 80.7 -85 79 C-82.76330036 77.91117367 -80.5322681 76.81044151 -78.3125 75.6875 C-76.559375 74.800625 -74.80625 73.91375 -73 73 C-73 80.92 -73 88.84 -73 97 C-68.52034168 96.88552319 -64.04158956 96.75877072 -59.5625 96.625 C-58.30244141 96.5940625 -57.04238281 96.563125 -55.74414062 96.53125 C-41.87665105 96.32224387 -41.87665105 96.32224387 -30 90 C-25.87821626 83.39844392 -23.85882147 77.39093787 -23.90576172 69.60229492 C-23.90841034 68.5473735 -23.91105896 67.49245209 -23.91378784 66.40556335 C-23.91903473 65.27528214 -23.92428162 64.14500092 -23.9296875 62.98046875 C-23.9211037 60.57225839 -23.91062795 58.16405417 -23.8984375 55.75585938 C-23.88174416 51.97015277 -23.87501125 48.18582158 -23.90039062 44.40014648 C-23.92139167 40.73856667 -23.89808804 37.07943232 -23.8671875 33.41796875 C-23.88457977 32.29376022 -23.90197205 31.1695517 -23.91989136 30.01127625 C-23.81493749 23.14284176 -22.73862568 19.45803485 -17.78877258 14.5930481 C-17.19847763 14.06734222 -16.60818268 13.54163635 -16 13 C-15.49498459 12.50789032 -14.98996918 12.01578064 -14.46965027 11.50875854 C-13.11659637 10.20036167 -11.71539867 8.9423038 -10.3125 7.6875 C-9.40113281 6.86636719 -8.48976563 6.04523438 -7.55078125 5.19921875 C-1.52042629 0 -1.52042629 0 0 0 Z " fill="#E4E2E2" transform="translate(303,228)"/>
<path d="M0 0 C0.66 0 1.32 0 2 0 C2.495 0.99 2.495 0.99 3 2 C5.01669827 3.13350534 5.01669827 3.13350534 7 4 C7 4.66 7 5.32 7 6 C7.86625 6.185625 7.86625 6.185625 8.75 6.375 C11.02335767 7.00648824 12.9253529 7.88858191 15 9 C13.68 10.98 12.36 12.96 11 15 C7.125 14.125 7.125 14.125 6 13 C6.26393501 16.43230448 6.26393501 16.43230448 7 20 C9.95377498 22.36980013 9.95377498 22.36980013 14 22 C13.67 21.67 13.34 21.34 13 21 C12.95919217 19.00041636 12.95745644 16.99954746 13 15 C14.32 14.34 15.64 13.68 17 13 C19 15 19 15 19.1875 18 C19 21 19 21 18 23 C19.32 21.68 20.64 20.36 22 19 C21.12790588 16.10736094 21.12790588 16.10736094 19.9375 14 C19 12 19 12 19 9 C19.66 9 20.32 9 21 9 C21 8.34 21 7.68 21 7 C21.66 7 22.32 7 23 7 C23.185625 5.5459375 23.185625 5.5459375 23.375 4.0625 C23.58125 3.051875 23.7875 2.04125 24 1 C24.66 0.67 25.32 0.34 26 0 C27.75734451 4.97361654 29.32584613 9.7415998 30 15 C29.34 15 28.68 15 28 15 C28 15.66 28 16.32 28 17 C27.34 17 26.68 17 26 17 C26.32402718 24.177202 27.91280345 30.43048999 30.2578125 37.21484375 C31 40 31 40 30 43 C29.38833984 42.99274902 28.77667969 42.98549805 28.14648438 42.97802734 C5.44166465 42.82602492 -18.39531684 46.30693634 -35.44140625 62.6796875 C-37 64 -37 64 -39 64 C-39 64.66 -39 65.32 -39 66 C-44.47619048 71 -44.47619048 71 -47 71 C-47.32274902 70.36908447 -47.64549805 69.73816895 -47.97802734 69.08813477 C-49.43766772 66.24312193 -50.90619918 63.40279358 -52.375 60.5625 C-52.88289063 59.56927734 -53.39078125 58.57605469 -53.9140625 57.55273438 C-54.64882812 56.13637695 -54.64882812 56.13637695 -55.3984375 54.69140625 C-56.07398682 53.37958374 -56.07398682 53.37958374 -56.76318359 52.04125977 C-57.8373322 49.85916106 -57.8373322 49.85916106 -60 49 C-60 49.66 -60 50.32 -60 51 C-62.32421875 50.83984375 -62.32421875 50.83984375 -65 50 C-66.58203125 47.56640625 -66.58203125 47.56640625 -67.8125 44.5625 C-68.23144531 43.57378906 -68.65039062 42.58507812 -69.08203125 41.56640625 C-70 39 -70 39 -70 37 C-66.04 37.99 -62.08 38.98 -58 40 C-57.67 41.98 -57.34 43.96 -57 46 C-57.66 46 -58.32 46 -59 46 C-55.93882432 48.62386487 -55.26826873 49 -51 49 C-51.66 48.2575 -52.32 47.515 -53 46.75 C-55 44 -55 44 -55 40 C-49.125 40.875 -49.125 40.875 -48 42 C-47.95936168 43.66617115 -47.957279 45.33388095 -48 47 C-45.16045573 44.69287028 -44.07839723 43.64024405 -43.625 39.9375 C-43.80232037 36.81457626 -43.80232037 36.81457626 -46 34 C-49.05429073 32.78715124 -49.05429073 32.78715124 -52 32 C-51.67 32.66 -51.34 33.32 -51 34 C-50.01 34 -49.02 34 -48 34 C-48 35.32 -48 36.64 -48 38 C-50.64 37.67 -53.28 37.34 -56 37 C-55.690625 35.948125 -55.38125 34.89625 -55.0625 33.8125 C-54.24112897 30.86522747 -53.55312554 28.00268148 -53 25 C-52.66666667 23.33333333 -52.33333333 21.66666667 -52 20 C-48.56027098 20.96312413 -45.18194006 21.93578586 -41.8125 23.125 C-38.85434014 24.19804437 -38.85434014 24.19804437 -35 24 C-35.66 26.31 -36.32 28.62 -37 31 C-38.32 31.33 -39.64 31.66 -41 32 C-41 31.34 -41 30.68 -41 30 C-40.34 30 -39.68 30 -39 30 C-39 29.34 -39 28.68 -39 28 C-39.99 28.66 -40.98 29.32 -42 30 C-41.72965366 32.43717258 -41.72965366 32.43717258 -41 35 C-37.96474514 37.02350324 -36.80573798 37.32124018 -33.3125 37.625 C-32.50425781 37.69976562 -31.69601563 37.77453125 -30.86328125 37.8515625 C-30.24839844 37.90054688 -29.63351563 37.94953125 -29 38 C-29 37.34 -29 36.68 -29 36 C-29.61875 35.896875 -30.2375 35.79375 -30.875 35.6875 C-33 35 -33 35 -35 32 C-34.625 29.3125 -34.625 29.3125 -34 27 C-31.625 26.875 -31.625 26.875 -29 27 C-26.4345406 29.5654594 -26.45953913 31.47686668 -26 35 C-23.33409063 30.44573816 -22.68436818 27.26053037 -23 22 C-23.66 22 -24.32 22 -25 22 C-25 22.99 -25 23.98 -25 25 C-27.64 24.67 -30.28 24.34 -33 24 C-32.42415568 21.61435923 -31.77772405 19.33317216 -31 17 C-30.34 17 -29.68 17 -29 17 C-28.855625 16.2575 -28.71125 15.515 -28.5625 14.75 C-28.09812508 12.47972261 -27.58136431 10.24240521 -27 8 C-21.25 9.75 -21.25 9.75 -19 12 C-18.01 12 -17.02 12 -16 12 C-16 12.66 -16 13.32 -16 14 C-14.35 14 -12.7 14 -11 14 C-11.33 14.99 -11.66 15.98 -12 17 C-12.66 17 -13.32 17 -14 17 C-14 18.32 -14 19.64 -14 21 C-15.32 20.67 -16.64 20.34 -18 20 C-17.01 19.67 -16.02 19.34 -15 19 C-15 18.34 -15 17.68 -15 17 C-16.98 17.99 -16.98 17.99 -19 19 C-18.43840585 22.25724605 -17.70956113 24.03790401 -15 26 C-11.89160979 26.7269226 -11.89160979 26.7269226 -9 27 C-9.66 26.34 -10.32 25.68 -11 25 C-11.125 21.875 -11.125 21.875 -11 19 C-8.625 18.375 -8.625 18.375 -6 18 C-4 20 -4 20 -3.875 23.625 C-3.91625 24.73875 -3.9575 25.8525 -4 27 C-0.47618313 24.45395403 -0.47618313 24.45395403 2 21 C2.039992 19.00039988 2.04346799 16.99952758 2 15 C1.01 14.505 1.01 14.505 0 14 C-0.33 15.32 -0.66 16.64 -1 18 C-6.75 16.25 -6.75 16.25 -9 14 C-8.360625 13.7525 -7.72125 13.505 -7.0625 13.25 C-4.83890051 12.2250619 -4.83890051 12.2250619 -4.5 10.1875 C-4.335 9.465625 -4.17 8.74375 -4 8 C-3.34859204 6.56637928 -2.6603073 5.14898188 -1.9375 3.75 C-1.57527344 3.04359375 -1.21304688 2.3371875 -0.83984375 1.609375 C-0.42412109 0.81273437 -0.42412109 0.81273437 0 0 Z " fill="#DDDDDD" transform="translate(157,136)"/>
<path d="M0 0 C4.60805521 -0.12394421 9.21513281 -0.21449675 13.82446289 -0.2746582 C15.39104114 -0.29974547 16.95750299 -0.33382415 18.52368164 -0.37719727 C20.78040309 -0.43811226 23.03557294 -0.46626499 25.29296875 -0.48828125 C25.98899704 -0.51408768 26.68502533 -0.5398941 27.40214539 -0.56648254 C31.25858278 -0.56868819 32.89419333 -0.08175694 35.98168945 2.30395508 C38 5 38 5 38 8.625 C37 12 37 12 34 15 C34.99 18.3 35.98 21.6 37 25 C37.99 25 38.98 25 40 25 C40.13277344 23.77023437 40.26554687 22.54046875 40.40234375 21.2734375 C40.58064043 19.64061531 40.7590308 18.00780334 40.9375 16.375 C41.02451172 15.56675781 41.11152344 14.75851562 41.20117188 13.92578125 C41.67709537 9.58958942 42.22837189 5.29609164 43 1 C44.32 1 45.64 1 47 1 C47.08564209 1.61520508 47.17128418 2.23041016 47.25952148 2.86425781 C47.64996171 5.65982037 48.04369627 8.45490936 48.4375 11.25 C48.57220703 12.21808594 48.70691406 13.18617188 48.84570312 14.18359375 C48.97783203 15.11816406 49.10996094 16.05273438 49.24609375 17.015625 C49.36654053 17.87446289 49.4869873 18.73330078 49.61108398 19.61816406 C49.9653996 21.78809698 50.43073221 23.87759781 51 26 C49.68 26 48.36 26 47 26 C47 23.36 47 20.72 47 18 C45.35 18 43.7 18 42 18 C42 20.64 42 23.28 42 26 C39.69 26 37.38 26 35 26 C34.01 23.36 33.02 20.72 32 18 C32 20.64 32 23.28 32 26 C27.05 26 22.1 26 17 26 C17 20.06 17 14.12 17 8 C16.34 8 15.68 8 15 8 C15 10.31 15 12.62 15 15 C14.67 13.68 14.34 12.36 14 11 C12.68 11 11.36 11 10 11 C10 15.62 10 20.24 10 25 C11.65 25 13.3 25 15 25 C15.33 24.34 15.66 23.68 16 23 C16 23.99 16 24.98 16 26 C13.03 26 10.06 26 7 26 C7.33 18.08 7.66 10.16 8 2 C6.68 2 5.36 2 4 2 C4.33 9.92 4.66 17.84 5 26 C3.68 25.67 2.36 25.34 1 25 C1.33 17.41 1.66 9.82 2 2 C1.34 2 0.68 2 0 2 C0 1.34 0 0.68 0 0 Z " fill="#DCDCDC" transform="translate(197,366)"/>
<path d="M0 0 C10.89 0 21.78 0 33 0 C31.02 0.99 31.02 0.99 29 2 C29 9.26 29 16.52 29 24 C28.34 24.33 27.68 24.66 27 25 C26.67 24.01 26.34 23.02 26 22 C25.67 22.99 25.34 23.98 25 25 C23.68 25 22.36 25 21 25 C21 20.38 21 15.76 21 11 C21.99 10.67 22.98 10.34 24 10 C23.01 10 22.02 10 21 10 C21 7.36 21 4.72 21 2 C22.32 2 23.64 2 25 2 C25.33 2.66 25.66 3.32 26 4 C26.33 3.01 26.66 2.02 27 1 C23.7 1 20.4 1 17 1 C17 3.31 17 5.62 17 8 C16.34 8 15.68 8 15 8 C15 10.31 15 12.62 15 15 C14.67 13.68 14.34 12.36 14 11 C12.68 11 11.36 11 10 11 C10 15.62 10 20.24 10 25 C11.65 25 13.3 25 15 25 C15.33 24.34 15.66 23.68 16 23 C16 23.99 16 24.98 16 26 C13.03 26 10.06 26 7 26 C7.33 18.08 7.66 10.16 8 2 C6.68 2 5.36 2 4 2 C4.33 9.92 4.66 17.84 5 26 C3.68 25.67 2.36 25.34 1 25 C1.33 17.41 1.66 9.82 2 2 C1.34 2 0.68 2 0 2 C0 1.34 0 0.68 0 0 Z " fill="#939393" transform="translate(197,366)"/>
<path d="M0 0 C1.98 0 3.96 0 6 0 C6 0.66 6 1.32 6 2 C5.34 2 4.68 2 4 2 C4 9.59 4 17.18 4 25 C7.0745356 24.2236068 7.0745356 24.2236068 9 22 C9.33 23.32 9.66 24.64 10 26 C7.03 26 4.06 26 1 26 C1.33 21.05 1.66 16.1 2 11 C0.68 11 -0.64 11 -2 11 C-2 15.95 -2 20.9 -2 26 C-3.32 26 -4.64 26 -6 26 C-6.33 25.34 -6.66 24.68 -7 24 C-7.66 24.66 -8.32 25.32 -9 26 C-12.125 26.125 -12.125 26.125 -15 26 C-14.67 25.34 -14.34 24.68 -14 24 C-12.68 24 -11.36 24 -10 24 C-9.40212941 19.33504315 -9.40212941 19.33504315 -11.3359375 15.22265625 C-11.88507813 14.65417969 -12.43421875 14.08570313 -13 13.5 C-15.63399048 10.74797692 -15.97241735 10.21031769 -16.5 6.1875 C-16 3 -16 3 -14 1 C-11.21484375 0.76953125 -11.21484375 0.76953125 -7.9375 0.8125 C-6.31134766 0.82216797 -6.31134766 0.82216797 -4.65234375 0.83203125 C-2 1 -2 1 -1 2 C-0.67 1.34 -0.34 0.68 0 0 Z " fill="#A0A0A0" transform="translate(276,366)"/>
<path d="M0 0 C0.66 0 1.32 0 2 0 C2.02578125 0.80824219 2.0515625 1.61648438 2.078125 2.44921875 C2.44597135 10.53344745 2.44597135 10.53344745 7 17 C7.66 18.65 8.32 20.3 9 22 C9 14.74 9 7.48 9 0 C10.32 0 11.64 0 13 0 C14.32 5.94 15.64 11.88 17 18 C17.99 12.39 18.98 6.78 20 1 C21.32 0.67 22.64 0.34 24 0 C24 8.25 24 16.5 24 25 C22.68 24.67 21.36 24.34 20 24 C20 21.03 20 18.06 20 15 C19.01 18.3 18.02 21.6 17 25 C14.64046906 22.64046906 14.50858587 21.22104383 14 18 C14 20.31 14 22.62 14 25 C11.69 25 9.38 25 7 25 C6.01 22.69 5.02 20.38 4 18 C4 20.31 4 22.62 4 25 C2.35 25 0.7 25 -1 25 C-0.67 16.75 -0.34 8.5 0 0 Z " fill="#DBDBDB" transform="translate(297,367)"/>
<path d="M0 0 C7 0 7 0 8.9140625 1.46875 C10.47785137 5.11384061 10.43451301 8.60520393 10.375 12.5 C10.38660156 13.25925781 10.39820313 14.01851563 10.41015625 14.80078125 C10.39361718 17.94871699 10.16111533 20.60151628 8.9765625 23.53125 C7 25 7 25 -1 25 C-0.67 16.75 -0.34 8.5 0 0 Z " fill="#BABABA" transform="translate(181,367)"/>
<path d="M0 0 C5.97873264 0.11935764 5.97873264 0.11935764 7.08984375 1.23046875 C7.17698206 2.93819233 7.19684382 4.64945524 7.1875 6.359375 C7.18427734 7.39384766 7.18105469 8.42832031 7.17773438 9.49414062 C7.16935547 10.58275391 7.16097656 11.67136719 7.15234375 12.79296875 C7.14783203 13.88544922 7.14332031 14.97792969 7.13867188 16.10351562 C7.12684201 18.8125537 7.11035918 21.52148474 7.08984375 24.23046875 C6.09984375 24.23046875 5.10984375 24.23046875 4.08984375 24.23046875 C3.75984375 24.56046875 3.42984375 24.89046875 3.08984375 25.23046875 C1.09026011 25.27127658 -0.91060879 25.27301231 -2.91015625 25.23046875 C-2.58015625 24.57046875 -2.25015625 23.91046875 -1.91015625 23.23046875 C-0.59015625 23.23046875 0.72984375 23.23046875 2.08984375 23.23046875 C2.68771434 18.5655119 2.68771434 18.5655119 0.75390625 14.453125 C0.20476562 13.88464844 -0.344375 13.31617188 -0.91015625 12.73046875 C-3.54414673 9.97844567 -3.8825736 9.44078644 -4.41015625 5.41796875 C-3.88859155 2.09299378 -3.56735972 0.43041763 0 0 Z " fill="#1E1E1E" transform="translate(263.91015625,366.76953125)"/>
<path d="M0 0 C0.66 0 1.32 0 2 0 C2.33 0.66 2.66 1.32 3 2 C5.01669827 3.13350534 5.01669827 3.13350534 7 4 C7 4.66 7 5.32 7 6 C7.86625 6.185625 7.86625 6.185625 8.75 6.375 C11.02335767 7.00648824 12.9253529 7.88858191 15 9 C13.02 11.97 13.02 11.97 11 15 C9.68 14.67 8.36 14.34 7 14 C7 13.01 7 12.02 7 11 C5.10820797 10.3185177 5.10820797 10.3185177 3 10 C2.34 10.66 1.68 11.32 1 12 C1.33 12.66 1.66 13.32 2 14 C1.34 14 0.68 14 0 14 C-0.33 15.32 -0.66 16.64 -1 18 C-6.75 16.25 -6.75 16.25 -9 14 C-8.360625 13.7525 -7.72125 13.505 -7.0625 13.25 C-4.83890051 12.2250619 -4.83890051 12.2250619 -4.5 10.1875 C-4.335 9.465625 -4.17 8.74375 -4 8 C-3.34859204 6.56637928 -2.6603073 5.14898188 -1.9375 3.75 C-1.57527344 3.04359375 -1.21304688 2.3371875 -0.83984375 1.609375 C-0.56269531 1.07828125 -0.28554687 0.5471875 0 0 Z " fill="#595959" transform="translate(157,136)"/>
<path d="M0 0 C1.32 0 2.64 0 4 0 C4.33 0.66 4.66 1.32 5 2 C5.33 1.34 5.66 0.68 6 0 C6.66 0 7.32 0 8 0 C8 7.26 8 14.52 8 22 C7.34 22.33 6.68 22.66 6 23 C5.67 22.01 5.34 21.02 5 20 C4.67 20.99 4.34 21.98 4 23 C2.68 23 1.36 23 0 23 C0 18.38 0 13.76 0 9 C0.99 8.67 1.98 8.34 3 8 C2.01 8 1.02 8 0 8 C0 5.36 0 2.72 0 0 Z " fill="#282828" transform="translate(218,368)"/>
<path d="M0 0 C3.43972902 0.96312413 6.81805994 1.93578586 10.1875 3.125 C13.14565986 4.19804437 13.14565986 4.19804437 17 4 C16.34 6.31 15.68 8.62 15 11 C13.68 11.33 12.36 11.66 11 12 C11 11.34 11 10.68 11 10 C11.66 10 12.32 10 13 10 C13 9.34 13 8.68 13 8 C11.2984375 8.2784375 11.2984375 8.2784375 9.5625 8.5625 C7.7990625 8.7790625 7.7990625 8.7790625 6 9 C5.67 8.67 5.34 8.34 5 8 C4.34 9.32 3.68 10.64 3 12 C2.01 12 1.02 12 0 12 C0.33 12.66 0.66 13.32 1 14 C1.99 14 2.98 14 4 14 C4 15.32 4 16.64 4 18 C1.36 17.67 -1.28 17.34 -4 17 C-3.690625 15.948125 -3.38125 14.89625 -3.0625 13.8125 C-2.24112897 10.86522747 -1.55312554 8.00268148 -1 5 C-0.66666667 3.33333333 -0.33333333 1.66666667 0 0 Z " fill="#C3C3C3" transform="translate(105,156)"/>
<path d="M0 0 C1.32 0.33 2.64 0.66 4 1 C4 8.92 4 16.84 4 25 C2.68 24.67 1.36 24.34 0 24 C0 21.03 0 18.06 0 15 C-0.99 18.3 -1.98 21.6 -3 25 C-5.35953094 22.64046906 -5.49141413 21.22104383 -6 18 C-6.33 19.65 -6.66 21.3 -7 23 C-7.33 23 -7.66 23 -8 23 C-8 17.72 -8 12.44 -8 7 C-7.34 6.67 -6.68 6.34 -6 6 C-5.01 9.96 -4.02 13.92 -3 18 C-2.49897155 15.18767959 -1.99912869 12.37515761 -1.5 9.5625 C-1.28537109 8.35883789 -1.28537109 8.35883789 -1.06640625 7.13085938 C-0.32426239 3.58604878 -0.32426239 3.58604878 0 0 Z " fill="#AEAEAE" transform="translate(317,367)"/>
<path d="M0 0 C0.33 0 0.66 0 1 0 C1 7.59 1 15.18 1 23 C-1.66666667 23 -4.33333333 23 -7 23 C-7 18.38 -7 13.76 -7 9 C-5.68 9 -4.36 9 -3 9 C-2.67 8.01 -2.34 7.02 -2 6 C-1.34 6 -0.68 6 0 6 C0 4.02 0 2.04 0 0 Z " fill="#282828" transform="translate(214,368)"/>
<path d="M0 0 C3.3 0 6.6 0 10 0 C10 2.31 10 4.62 10 7 C8 3.25 8 3.25 8 1 C6.68 1 5.36 1 4 1 C4 3.64 4 6.28 4 9 C4.99 9 5.98 9 7 9 C7 7.35 7 5.7 7 4 C7.33 4 7.66 4 8 4 C8 7.3 8 10.6 8 14 C7.67 12.68 7.34 11.36 7 10 C6.01 10 5.02 10 4 10 C4 14.62 4 19.24 4 24 C5.32 24 6.64 24 8 24 C8.33 22.02 8.66 20.04 9 18 C9.33 18 9.66 18 10 18 C10.33 20.31 10.66 22.62 11 25 C7.37 25 3.74 25 0 25 C0 16.75 0 8.5 0 0 Z " fill="#AFAFAF" transform="translate(214,367)"/>
<path d="M0 0 C5.75 1.75 5.75 1.75 8 4 C8.99 4 9.98 4 11 4 C11 4.66 11 5.32 11 6 C12.65 6 14.3 6 16 6 C15.67 6.99 15.34 7.98 15 9 C14.34 9 13.68 9 13 9 C13 10.32 13 11.64 13 13 C11.68 12.67 10.36 12.34 9 12 C9.99 11.67 10.98 11.34 12 11 C12 10.34 12 9.68 12 9 C10.2984375 9.0309375 10.2984375 9.0309375 8.5625 9.0625 C5 9 5 9 4 8 C3.01 9.32 2.02 10.64 1 12 C0.01 11.67 -0.98 11.34 -2 11 C-1.34 11 -0.68 11 0 11 C0 10.34 0 9.68 0 9 C-0.66 9 -1.32 9 -2 9 C-1.41196203 5.97580475 -0.77321882 2.98241547 0 0 Z " fill="#4F4F4F" transform="translate(130,144)"/>
<path d="M0 0 C1.32 0.33 2.64 0.66 4 1 C5.17832621 4.53497862 5.18397309 7.75893071 5.1875 11.4375 C5.20167969 12.75621094 5.21585938 14.07492187 5.23046875 15.43359375 C5.02228903 18.6550867 4.72168766 20.33920999 3 23 C2.01 23 1.02 23 0 23 C0 15.41 0 7.82 0 0 Z " fill="#1E1E1E" transform="translate(184,368)"/>
<path d="M0 0 C2.50360992 4.62204909 5 9.69950655 5 15 C4.34 15 3.68 15 3 15 C3 15.66 3 16.32 3 17 C0.6875 17.6875 0.6875 17.6875 -2 18 C-3.75 16.9375 -3.75 16.9375 -5 15 C-5.6875 11.8125 -5.6875 11.8125 -6 9 C-5.34 9 -4.68 9 -4 9 C-4 8.34 -4 7.68 -4 7 C-3.34 7 -2.68 7 -2 7 C-1.855625 6.030625 -1.71125 5.06125 -1.5625 4.0625 C-1 1 -1 1 0 0 Z " fill="#B5B5B5" transform="translate(182,136)"/>
<path d="M0 0 C5.94 1.485 5.94 1.485 12 3 C12.33 4.98 12.66 6.96 13 9 C12.34 9 11.68 9 11 9 C11.66 10.32 12.32 11.64 13 13 C12.01 12.67 11.02 12.34 10 12 C10 12.66 10 13.32 10 14 C7.67578125 13.83984375 7.67578125 13.83984375 5 13 C3.41796875 10.56640625 3.41796875 10.56640625 2.1875 7.5625 C1.76855469 6.57378906 1.34960938 5.58507812 0.91796875 4.56640625 C0 2 0 2 0 0 Z " fill="#CFCFCF" transform="translate(87,173)"/>
<path d="M0 0 C1.32 0 2.64 0 4 0 C4 7.59 4 15.18 4 23 C2.68 23 1.36 23 0 23 C0 15.41 0 7.82 0 0 Z " fill="#343434" transform="translate(201,368)"/>
<path d="M0 0 C2.5 0.25 2.5 0.25 4.5 2.25 C4.625 5.375 4.625 5.375 4.5 8.25 C4.17 8.25 3.84 8.25 3.5 8.25 C2.84 6.27 2.18 4.29 1.5 2.25 C0.51 2.25 -0.48 2.25 -1.5 2.25 C-2.00753344 4.45152247 -2.00753344 4.45152247 -1.5 7.25 C-0.19307991 8.95199684 -0.19307991 8.95199684 1.4375 10.625 C4.56656783 14.02841738 5.58961212 16.50055743 5.5 21.25 C4.4375 23.6875 4.4375 23.6875 2.5 25.25 C-0.6875 25.5 -0.6875 25.5 -3.5 25.25 C-3.17 24.59 -2.84 23.93 -2.5 23.25 C-1.18 23.25 0.14 23.25 1.5 23.25 C2.09787059 18.58504315 2.09787059 18.58504315 0.1640625 14.47265625 C-0.38507813 13.90417969 -0.93421875 13.33570313 -1.5 12.75 C-4.13399048 9.99797692 -4.47241735 9.46031769 -5 5.4375 C-4.40355479 1.63516177 -3.93597797 0.3935978 0 0 Z " fill="#C2C2C2" transform="translate(264.5,366.75)"/>
<path d="M0 0 C2.375 -0.125 2.375 -0.125 5 0 C7.3920839 2.3920839 7.34576948 3.15138886 7.4375 6.4375 C7.40234375 8.8671875 7.40234375 8.8671875 7 11 C4.5 13.0625 4.5 13.0625 2 14 C0 12 0 12 -0.1953125 9.1796875 C-0.17210937 8.08914063 -0.14890625 6.99859375 -0.125 5.875 C-0.10695313 4.77929688 -0.08890625 3.68359375 -0.0703125 2.5546875 C-0.04710937 1.71164062 -0.02390625 0.86859375 0 0 Z " fill="#B6B6B6" transform="translate(299,367)"/>
<path d="M0 0 C1.32 0 2.64 0 4 0 C4.08746928 4.04152915 4.14054982 8.08281305 4.1875 12.125 C4.21263672 13.26710938 4.23777344 14.40921875 4.26367188 15.5859375 C4.35493909 26.0512447 4.35493909 26.0512447 1 31 C-0.11911712 27.64264863 -0.11365586 25.11794614 -0.09765625 21.58203125 C-0.09443359 20.32841797 -0.09121094 19.07480469 -0.08789062 17.78320312 C-0.07951172 16.47287109 -0.07113281 15.16253906 -0.0625 13.8125 C-0.05748317 12.47721519 -0.05292059 11.14192859 -0.04882812 9.80664062 C-0.03702695 6.53771527 -0.02056297 3.26888009 0 0 Z " fill="#A5A5A5" transform="translate(248,367)"/>
<path d="M0 0 C2.97 0 5.94 0 9 0 C8.67 0.99 8.34 1.98 8 3 C8 2.34 8 1.68 8 1 C6.35 1 4.7 1 3 1 C3 3.64 3 6.28 3 9 C6.0745356 8.2236068 6.0745356 8.2236068 8 6 C8 8.64 8 11.28 8 14 C7.67 12.68 7.34 11.36 7 10 C5.68 10 4.36 10 3 10 C3 14.62 3 19.24 3 24 C4.65 24 6.3 24 8 24 C8.33 23.34 8.66 22.68 9 22 C9 22.99 9 23.98 9 25 C6.03 25 3.06 25 0 25 C0 16.75 0 8.5 0 0 Z " fill="#CDCDCD" transform="translate(204,367)"/>
<path d="M0 0 C6.75 1.625 6.75 1.625 9 5 C9.36662773 8.44630063 9.37586669 10.35077572 7.625 13.375 C7.08875 13.91125 6.5525 14.4475 6 15 C5.34 15 4.68 15 4 15 C3.9071875 13.824375 3.9071875 13.824375 3.8125 12.625 C3.544375 11.75875 3.27625 10.8925 3 10 C0.52363988 8.62533375 0.52363988 8.62533375 -2 8 C1 6 1 6 4 6 C3.67 5.01 3.34 4.02 3 3 C2.01 2.67 1.02 2.34 0 2 C0 1.34 0 0.68 0 0 Z " fill="#2F2F2F" transform="translate(105,168)"/>
<path d="M0 0 C0.99 0.33 1.98 0.66 3 1 C3.12375 2.423125 3.12375 2.423125 3.25 3.875 C3.65074923 7.10461791 3.65074923 7.10461791 6.0625 8.375 C6.701875 8.58125 7.34125 8.7875 8 9 C8 9.66 8 10.32 8 11 C3.05556335 11.48474869 0.02340493 11.73685155 -4.125 8.75 C-6 6 -6 6 -6 3.75 C-5 2 -5 2 -2 1 C-2 1.66 -2 2.32 -2 3 C-2.66 3 -3.32 3 -4 3 C-4 3.66 -4 4.32 -4 5 C-3.01 4.67 -2.02 4.34 -1 4 C-0.26676204 1.98491642 -0.26676204 1.98491642 0 0 Z " fill="#272727" transform="translate(120,163)"/>
<path d="M0 0 C0.99 0.33 1.98 0.66 3 1 C3.34559158 3.90296927 3.51874316 6.12537491 1.9921875 8.69921875 C-0.19479231 11.40347821 -1.66669298 12.88889766 -5 14 C-4.9175 12.741875 -4.835 11.48375 -4.75 10.1875 C-4.68311857 8.01202652 -4.68311857 8.01202652 -5 6 C-6.84188612 3.94729537 -6.84188612 3.94729537 -9 3 C-5.71303767 2.20046862 -4.28976808 1.90341064 -1 3 C-0.67 2.01 -0.34 1.02 0 0 Z " fill="#292929" transform="translate(157,150)"/>
<path d="M0 0 C1.65 0 3.3 0 5 0 C5.103125 1.155 5.20625 2.31 5.3125 3.5 C6.10218498 10.734908 7.60744581 17.86206501 9 25 C7.35 25 5.7 25 4 25 C4.04125 23.906875 4.0825 22.81375 4.125 21.6875 C4.125 14.28826327 2.6150901 6.91130955 0 0 Z " fill="#C2C2C2" transform="translate(326,367)"/>
<path d="M0 0 C1.65 0 3.3 0 5 0 C5.103125 1.155 5.20625 2.31 5.3125 3.5 C6.10218498 10.734908 7.60744581 17.86206501 9 25 C7.35 25 5.7 25 4 25 C4.04125 23.906875 4.0825 22.81375 4.125 21.6875 C4.125 14.28826327 2.6150901 6.91130955 0 0 Z " fill="#C2C2C2" transform="translate(286,367)"/>
<path d="M0 0 C0 0.66 0 1.32 0 2 C-0.99 2.495 -0.99 2.495 -2 3 C-1.01 3.33 -0.02 3.66 1 4 C1.33 2.68 1.66 1.36 2 0 C2 0.99 2 1.98 2 3 C2.66 3 3.32 3 4 3 C4.309375 3.94875 4.61875 4.8975 4.9375 5.875 C5.87394742 8.86080408 5.87394742 8.86080408 7 11 C2.70223394 10.74719023 0.45348354 10.34956023 -3 7.6875 C-5 5 -5 5 -4.9375 2.75 C-3.65873652 0.36297483 -2.67659476 0 0 0 Z " fill="#2F2F2F" transform="translate(142,153)"/>
<path d="M0 0 C1.32 0 2.64 0 4 0 C4.08564209 0.61520508 4.17128418 1.23041016 4.25952148 1.86425781 C4.64996171 4.65982037 5.04369627 7.45490936 5.4375 10.25 C5.57220703 11.21808594 5.70691406 12.18617188 5.84570312 13.18359375 C5.97783203 14.11816406 6.10996094 15.05273438 6.24609375 16.015625 C6.36654053 16.87446289 6.4869873 17.73330078 6.61108398 18.61816406 C6.9653996 20.78809698 7.43073221 22.87759781 8 25 C6.68 25 5.36 25 4 25 C3.91435791 24.34926514 3.82871582 23.69853027 3.74047852 23.02807617 C3.35085906 20.08080626 2.95673217 17.13415629 2.5625 14.1875 C2.42779297 13.16333984 2.29308594 12.13917969 2.15429688 11.08398438 C2.02216797 10.10107422 1.89003906 9.11816406 1.75390625 8.10546875 C1.63345947 7.19949951 1.5130127 6.29353027 1.38891602 5.36010742 C1.04037128 2.8581656 1.04037128 2.8581656 0 0 Z " fill="#CCCCCC" transform="translate(240,367)"/>
<path d="M0 0 C0.66 0.66 1.32 1.32 2 2 C5.08347826 2.16681109 5.08347826 2.16681109 8 2 C7.979375 3.11375 7.95875 4.2275 7.9375 5.375 C7.73619282 8.83215921 7.73619282 8.83215921 9 11 C2.56985294 10.51470588 2.56985294 10.51470588 0.0625 8.25 C-1.17893286 5.62108336 -1.31080287 3.87492653 -1 1 C-0.67 0.67 -0.34 0.34 0 0 Z " fill="#232323" transform="translate(163,148)"/>
<path d="M0 0 C0.99 0.33 1.98 0.66 3 1 C3.33 1.99 3.66 2.98 4 4 C3.01 4.33 2.02 4.66 1 5 C1 5.66 1 6.32 1 7 C1.66 7.33 2.32 7.66 3 8 C2.67 9.32 2.34 10.64 2 12 C1.34 12 0.68 12 0 12 C0.33 12.66 0.66 13.32 1 14 C1.99 14 2.98 14 4 14 C4 15.32 4 16.64 4 18 C1.36 17.67 -1.28 17.34 -4 17 C-3.690625 15.948125 -3.38125 14.89625 -3.0625 13.8125 C-2.24112897 10.86522747 -1.55312554 8.00268148 -1 5 C-0.66666667 3.33333333 -0.33333333 1.66666667 0 0 Z " fill="#C7C7C7" transform="translate(105,156)"/>
<path d="M0 0 C2.375 -0.125 2.375 -0.125 5 0 C7 2 7 2 7.25 5.5 C7 9 7 9 5 11 C5 10.34 5 9.68 5 9 C4.071875 8.8453125 4.071875 8.8453125 3.125 8.6875 C1 8 1 8 -1 5 C-0.625 2.3125 -0.625 2.3125 0 0 Z " fill="#D2D2D2" transform="translate(123,163)"/>
<path d="M0 0 C2.85793316 2.85793316 2.40799941 5.14665584 2.625 9.125 C2.69976562 10.40632813 2.77453125 11.68765625 2.8515625 13.0078125 C2.92503906 14.48894531 2.92503906 14.48894531 3 16 C1.68 16 0.36 16 -1 16 C-1 18.31 -1 20.62 -1 23 C-2.88606019 19.85447769 -3.1705204 18.04757767 -2.5390625 14.453125 C-2.39726562 13.60878906 -2.25546875 12.76445312 -2.109375 11.89453125 C-1.94953125 11.02183594 -1.7896875 10.14914062 -1.625 9.25 C-1.47289062 8.36183594 -1.32078125 7.47367187 -1.1640625 6.55859375 C-0.78755013 4.37011562 -0.39918943 2.18443564 0 0 Z " fill="#868686" transform="translate(240,368)"/>
<path d="M0 0 C4.70588235 0.70588235 4.70588235 0.70588235 6 2 C5.82364548 4.69082872 5.38164079 7.32851446 5 10 C3.02 10.33 1.04 10.66 -1 11 C-0.34 10.34 0.32 9.68 1 9 C0.34 8.34 -0.32 7.68 -1 7 C-1.1875 3.9375 -1.1875 3.9375 -1 1 C-0.67 0.67 -0.34 0.34 0 0 Z " fill="#D4D4D4" transform="translate(147,154)"/>
<path d="M0 0 C0.99 0.33 1.98 0.66 3 1 C3.33 4.63 3.66 8.26 4 12 C2.68 12 1.36 12 0 12 C0 14.64 0 17.28 0 20 C-0.99 20 -1.98 20 -3 20 C-2.01 13.4 -1.02 6.8 0 0 Z " fill="#8D8D8D" transform="translate(326,372)"/>
<path d="M0 0 C1.98 0 3.96 0 6 0 C5.67 0.66 5.34 1.32 5 2 C4.01 2 3.02 2 2 2 C2 9.59 2 17.18 2 25 C-0.90408342 21.12788877 -1.85079464 18.59682146 -3 14 C-2.01 13.34 -1.02 12.68 0 12 C0.3642359 9.89470736 0.3642359 9.89470736 0.1875 7.5625 C0.14689453 6.38880859 0.14689453 6.38880859 0.10546875 5.19140625 C0.05326172 4.10666016 0.05326172 4.10666016 0 3 C0 2.01 0 1.02 0 0 Z " fill="#272727" transform="translate(305,366)"/>
<path d="M0 0 C1.32 0.66 2.64 1.32 4 2 C3.67 4.97 3.34 7.94 3 11 C0.69 11 -1.62 11 -4 11 C-3.01 10.34 -2.02 9.68 -1 9 C-1.33 8.67 -1.66 8.34 -2 8 C-2.1875 5.0625 -2.1875 5.0625 -2 2 C-1.34 1.34 -0.68 0.68 0 0 Z " fill="#CCCCCC" transform="translate(172,149)"/>
<path d="M0 0 C0.99 0.33 1.98 0.66 3 1 C3.33 4.63 3.66 8.26 4 12 C2.68 12 1.36 12 0 12 C-0.66 13.32 -1.32 14.64 -2 16 C-1.34 10.72 -0.68 5.44 0 0 Z " fill="#818181" transform="translate(286,372)"/>
<path d="M0 0 C0.33 0 0.66 0 1 0 C1.07347656 1.24716797 1.07347656 1.24716797 1.1484375 2.51953125 C1.22320312 3.60621094 1.29796875 4.69289063 1.375 5.8125 C1.44460938 6.89144531 1.51421875 7.97039062 1.5859375 9.08203125 C1.81195733 12.18626186 1.81195733 12.18626186 4 15 C4.1953125 17.26171875 4.1953125 17.26171875 4.125 19.6875 C4.10695313 20.49574219 4.08890625 21.30398438 4.0703125 22.13671875 C4.03550781 23.05904297 4.03550781 23.05904297 4 24 C2.35 24 0.7 24 -1 24 C-0.67 16.08 -0.34 8.16 0 0 Z " fill="#B3B3B3" transform="translate(297,368)"/>
<path d="M0 0 C5.875 0.875 5.875 0.875 7 2 C7.04063832 3.66617115 7.042721 5.33388095 7 7 C7.66 7.33 8.32 7.66 9 8 C6 9 6 9 3.375 7.9375 C1 6 1 6 0.1875 2.8125 C0.125625 1.884375 0.06375 0.95625 0 0 Z " fill="#D7D7D7" transform="translate(102,176)"/>
<path d="M0 0 C6.64615385 1.47692308 6.64615385 1.47692308 8.4375 4.125 C8.7159375 5.053125 8.7159375 5.053125 9 6 C8.01 6.495 8.01 6.495 7 7 C7 7.99 7 8.98 7 10 C5.109375 9.78515625 5.109375 9.78515625 3 9 C1.953125 6.93359375 1.953125 6.93359375 1.25 4.4375 C1.00765625 3.61121094 0.7653125 2.78492188 0.515625 1.93359375 C0.34546875 1.29550781 0.1753125 0.65742188 0 0 Z " fill="#696969" transform="translate(87,173)"/>
<path d="M0 0 C1.32 0 2.64 0 4 0 C4.33 0.66 4.66 1.32 5 2 C5.66 2.66 6.32 3.32 7 4 C6.67 4.33 6.34 4.66 6 5 C6 5.99 6 6.98 6 8 C3.36 7.67 0.72 7.34 -2 7 C-1.42415568 4.61435923 -0.77772405 2.33317216 0 0 Z " fill="#CACACA" transform="translate(126,153)"/>
<path d="M0 0 C3 1 3 1 4 3 C4.07194869 5.88370333 4.09291708 8.74239664 4.0625 11.625 C4.05798828 12.42679687 4.05347656 13.22859375 4.04882812 14.0546875 C4.03703168 16.03649006 4.01909605 18.01825433 4 20 C3.34 20.33 2.68 20.66 2 21 C1.93941406 19.81921875 1.87882813 18.6384375 1.81640625 17.421875 C1.73197418 15.8645723 1.64732751 14.30728121 1.5625 12.75 C1.52318359 11.97269531 1.48386719 11.19539063 1.44335938 10.39453125 C1.40146484 9.64042969 1.35957031 8.88632812 1.31640625 8.109375 C1.27974854 7.41811523 1.24309082 6.72685547 1.20532227 6.01464844 C0.99324476 3.93371671 0.55491323 2.01427578 0 0 Z " fill="#CECECE" transform="translate(187,368)"/>
<path d="M0 0 C0.66 0 1.32 0 2 0 C2.02578125 0.80824219 2.0515625 1.61648438 2.078125 2.44921875 C2.50228696 10.50319469 2.50228696 10.50319469 7 17 C7.88800742 19.31568786 8.4299616 21.57733678 9 24 C8.01 24 7.02 24 6 24 C5.72285156 23.28972656 5.44570313 22.57945312 5.16015625 21.84765625 C4.79792969 20.92855469 4.43570312 20.00945312 4.0625 19.0625 C3.70285156 18.14597656 3.34320313 17.22945313 2.97265625 16.28515625 C2.2003782 14.07581467 2.2003782 14.07581467 1 13 C0.76518307 10.81707226 0.58636677 8.62796826 0.4375 6.4375 C0.35371094 5.23996094 0.26992188 4.04242188 0.18359375 2.80859375 C0.12300781 1.88175781 0.06242187 0.95492188 0 0 Z " fill="#D5D5D5" transform="translate(297,367)"/>
<path d="M0 0 C1.32 0.33 2.64 0.66 4 1 C4.125 8.75 4.125 8.75 3 11 C2.01 11 1.02 11 0 11 C0 7.37 0 3.74 0 0 Z " fill="#1C1C1C" transform="translate(228,368)"/>
<path d="M0 0 C0.99 0.33 1.98 0.66 3 1 C3 8.59 3 16.18 3 24 C0.63425766 20.4513865 0.89134735 19.4235475 1.375 15.3125 C1.48585938 14.31863281 1.59671875 13.32476562 1.7109375 12.30078125 C1.80632812 11.54152344 1.90171875 10.78226562 2 10 C1.34 10 0.68 10 0 10 C0 6.7 0 3.4 0 0 Z " fill="#404040" transform="translate(268,367)"/>
<path d="M0 0 C0.99 0 1.98 0 3 0 C4.4783226 2.95664519 4.06032783 5.74229737 4 9 C2.02 9.99 2.02 9.99 0 11 C0 7.37 0 3.74 0 0 Z " fill="#1D1D1D" transform="translate(300,368)"/>
<path d="M0 0 C1.32 0.33 2.64 0.66 4 1 C3.01 1.495 3.01 1.495 2 2 C2.99 3.485 2.99 3.485 4 5 C4.33 5.99 4.66 6.98 5 8 C1.20442119 8 -0.62902617 7.49821059 -4 6 C-3.34 5.01 -2.68 4.02 -2 3 C-1.34 3 -0.68 3 0 3 C0 2.01 0 1.02 0 0 Z " fill="#C9C9C9" transform="translate(152,145)"/>
<path d="M0 0 C2.92879371 0.62759865 5.36095629 1.58622659 8 3 C6.02 5.97 6.02 5.97 4 9 C2.68 8.67 1.36 8.34 0 8 C0.99 7.67 1.98 7.34 3 7 C2.67 5.68 2.34 4.36 2 3 C1.34 3 0.68 3 0 3 C0 2.01 0 1.02 0 0 Z " fill="#C4C4C4" transform="translate(164,142)"/>
<path d="M0 0 C2.375 0.3125 2.375 0.3125 5 1 C7 4 7 4 6.9375 7.5 C6 11 6 11 3.4375 12.9375 C2.633125 13.288125 1.82875 13.63875 1 14 C0.67 13.34 0.34 12.68 0 12 C0.99 12 1.98 12 3 12 C3.08090971 10.37581255 3.13914995 8.75048255 3.1875 7.125 C3.22230469 6.22007812 3.25710937 5.31515625 3.29296875 4.3828125 C3.14794922 3.20332031 3.14794922 3.20332031 3 2 C2.01 1.34 1.02 0.68 0 0 Z " fill="#B3B3B3" transform="translate(228,367)"/>
<path d="M0 0 C2.39073445 3.82517513 2.55966552 7.59665524 3 12 C0.03 11.505 0.03 11.505 -3 11 C-2.69217504 9.35328588 -2.37860766 7.70764424 -2.0625 6.0625 C-1.88847656 5.14597656 -1.71445313 4.22945312 -1.53515625 3.28515625 C-1 1 -1 1 0 0 Z " fill="#555555" transform="translate(182,136)"/>
<path d="M0 0 C0.66 0 1.32 0 2 0 C2.33 0.66 2.66 1.32 3 2 C3.99 2.33 4.98 2.66 6 3 C6 4.32 6 5.64 6 7 C5.34 7 4.68 7 4 7 C4 6.34 4 5.68 4 5 C2.68 5.33 1.36 5.66 0 6 C0 6.66 0 7.32 0 8 C-0.66 8 -1.32 8 -2 8 C-1.125 1.125 -1.125 1.125 0 0 Z " fill="#C7C7C7" transform="translate(157,136)"/>
<path d="M0 0 C1.32 0 2.64 0 4 0 C4.99 3.3 5.98 6.6 7 10 C7.99 10 8.98 10 10 10 C10.33 9.34 10.66 8.68 11 8 C11.33 8.99 11.66 9.98 12 11 C9.69 11 7.38 11 5 11 C4.72285156 10.37351562 4.44570312 9.74703125 4.16015625 9.1015625 C3.79792969 8.28429687 3.43570313 7.46703125 3.0625 6.625 C2.70285156 5.81289063 2.34320313 5.00078125 1.97265625 4.1640625 C1.3430097 2.76316215 0.68687358 1.37374716 0 0 Z " fill="#C6C6C6" transform="translate(227,381)"/>
<path d="M0 0 C1.98 0.66 3.96 1.32 6 2 C6 3.32 6 4.64 6 6 C5.67 5.34 5.34 4.68 5 4 C4.34 4 3.68 4 3 4 C2.67 5.32 2.34 6.64 2 8 C0.68 7.67 -0.64 7.34 -2 7 C-1.34 4.69 -0.68 2.38 0 0 Z " fill="#D7D7D7" transform="translate(130,144)"/>
<path d="M0 0 C1.65 0 3.3 0 5 0 C4.67 2.31 4.34 4.62 4 7 C2.68 7.33 1.36 7.66 0 8 C0 5.36 0 2.72 0 0 Z " fill="#292929" transform="translate(207,368)"/>
<path d="M0 0 C1.32 0 2.64 0 4 0 C4.66 2.31 5.32 4.62 6 7 C4.02 7.33 2.04 7.66 0 8 C0 5.36 0 2.72 0 0 Z " fill="#212121" transform="translate(218,368)"/>
<path d="M0 0 C0.66 0.66 1.32 1.32 2 2 C4.10820797 1.6814823 4.10820797 1.6814823 6 1 C6.66 1.99 7.32 2.98 8 4 C8.99 4.66 9.98 5.32 11 6 C8.3125 6.75 8.3125 6.75 5 7 C2.125 5.25 2.125 5.25 0 3 C0 2.01 0 1.02 0 0 Z " fill="#333333" transform="translate(97,179)"/>
<path d="M0 0 C0 0.66 0 1.32 0 2 C0.99 1.67 1.98 1.34 3 1 C3 1.66 3 2.32 3 3 C3.99 2.67 4.98 2.34 6 2 C6 2.66 6 3.32 6 4 C4.34385343 4.38218767 2.67542976 4.71395102 1 5 C0.67 4.67 0.34 4.34 0 4 C-0.66 5.32 -1.32 6.64 -2 8 C-4 5 -4 5 -4 1 C-2 0 -2 0 0 0 Z " fill="#484848" transform="translate(110,160)"/>
<path d="M0 0 C0.99 0 1.98 0 3 0 C3 0.66 3 1.32 3 2 C4.65 2 6.3 2 8 2 C7.67 2.99 7.34 3.98 7 5 C6.34 5 5.68 5 5 5 C5 6.32 5 7.64 5 9 C3.68 8.67 2.36 8.34 1 8 C1.99 7.67 2.98 7.34 4 7 C4 6.34 4 5.68 4 5 C2.68 4.34 1.36 3.68 0 3 C0 2.01 0 1.02 0 0 Z " fill="#D2D2D2" transform="translate(138,148)"/>
<path d="M0 0 C0.33 0 0.66 0 1 0 C1 4.62 1 9.24 1 14 C-0.32 14.33 -1.64 14.66 -3 15 C-2.01 10.05 -1.02 5.1 0 0 Z " fill="#242424" transform="translate(317,377)"/>
<path d="M0 0 C1.32 0 2.64 0 4 0 C3.84152588 0.5662207 3.68305176 1.13244141 3.51977539 1.71582031 C2.99214152 4.0345345 2.795844 6.17358397 2.68359375 8.546875 C2.64169922 9.39121094 2.59980469 10.23554688 2.55664062 11.10546875 C2.51732422 11.97816406 2.47800781 12.85085938 2.4375 13.75 C2.39431641 14.63816406 2.35113281 15.52632813 2.30664062 16.44140625 C2.20086385 18.62745963 2.09877454 20.81362089 2 23 C1.67 23 1.34 23 1 23 C0.67 15.41 0.34 7.82 0 0 Z " fill="#BDBDBD" transform="translate(306,367)"/>
<path d="M0 0 C1.32 0 2.64 0 4 0 C3.67 7.92 3.34 15.84 3 24 C2.67 24 2.34 24 2 24 C1.97494385 23.34402832 1.9498877 22.68805664 1.92407227 22.01220703 C1.8082674 19.04959817 1.68547114 16.08731969 1.5625 13.125 C1.52318359 12.09246094 1.48386719 11.05992187 1.44335938 9.99609375 C1.40146484 9.00996094 1.35957031 8.02382813 1.31640625 7.0078125 C1.27974854 6.09660645 1.24309082 5.18540039 1.20532227 4.24658203 C1.13422935 1.96516519 1.13422935 1.96516519 0 0 Z " fill="#DEDEDE" transform="translate(248,367)"/>
<path d="M0 0 C1.32 0 2.64 0 4 0 C4.33 3.96 4.66 7.92 5 12 C4.01 11.67 3.02 11.34 2 11 C1.34 7.37 0.68 3.74 0 0 Z " fill="#BEBEBE" transform="translate(240,367)"/>
<path d="M0 0 C1.65 0.33 3.3 0.66 5 1 C5.33 2.98 5.66 4.96 6 7 C5.01 7 4.02 7 3 7 C2.67 6.34 2.34 5.68 2 5 C1.01 4.67 0.02 4.34 -1 4 C-0.01 4 0.98 4 2 4 C1.34 3.67 0.68 3.34 0 3 C0 2.01 0 1.02 0 0 Z " fill="#C6C6C6" transform="translate(94,175)"/>
<path d="M0 0 C0.6875 1.75 0.6875 1.75 1 4 C-0.3125 6.25 -0.3125 6.25 -2 8 C-2.66 8 -3.32 8 -4 8 C-3.67 5.69 -3.34 3.38 -3 1 C-2.01 0.67 -1.02 0.34 0 0 Z " fill="#272727" transform="translate(179,151)"/>
<path d="M0 0 C0.99 0.33 1.98 0.66 3 1 C3.33 1.99 3.66 2.98 4 4 C3.01 4.33 2.02 4.66 1 5 C1 5.66 1 6.32 1 7 C1.66 7.33 2.32 7.66 3 8 C1.68 8 0.36 8 -1 8 C-0.67 5.36 -0.34 2.72 0 0 Z " fill="#D7D7D7" transform="translate(105,156)"/>
<path d="M0 0 C1.65 0 3.3 0 5 0 C4.67 2.64 4.34 5.28 4 8 C1.10067643 5.60490662 0.49831724 3.68754757 0 0 Z " fill="#D0D0D0" transform="translate(326,367)"/>
<path d="M0 0 C1.65 0 3.3 0 5 0 C4.67 2.64 4.34 5.28 4 8 C1.10067643 5.60490662 0.49831724 3.68754757 0 0 Z " fill="#D0D0D0" transform="translate(286,367)"/>
<path d="M0 0 C0.33 0 0.66 0 1 0 C1.33 3.3 1.66 6.6 2 10 C1.01 10 0.02 10 -1 10 C-0.67 6.7 -0.34 3.4 0 0 Z " fill="#282828" transform="translate(241,372)"/>
<path d="M0 0 C0.66 0 1.32 0 2 0 C2.33 2.31 2.66 4.62 3 7 C1.68 7 0.36 7 -1 7 C-0.67 4.69 -0.34 2.38 0 0 Z " fill="#272727" transform="translate(327,375)"/>
<path d="M0 0 C0.66 0 1.32 0 2 0 C2.33 2.31 2.66 4.62 3 7 C1.68 7 0.36 7 -1 7 C-0.67 4.69 -0.34 2.38 0 0 Z " fill="#272727" transform="translate(287,375)"/>
<path d="M0 0 C1.98 0.66 3.96 1.32 6 2 C5.33333333 3.33333333 4.66666667 4.66666667 4 6 C3.34 6 2.68 6 2 6 C1.34 4.02 0.68 2.04 0 0 Z " fill="#BEBEBE" transform="translate(87,173)"/>
<path d="M0 0 C0.33 0 0.66 0 1 0 C1 1.65 1 3.3 1 5 C1.66 5 2.32 5 3 5 C3.33 6.32 3.66 7.64 4 9 C3.01 9 2.02 9 1 9 C1 8.34 1 7.68 1 7 C0.01 6.67 -0.98 6.34 -2 6 C-1.34 6 -0.68 6 0 6 C0 4.02 0 2.04 0 0 Z " fill="#707070" transform="translate(163,140)"/>
<path d="M0 0 C1.485 0.99 1.485 0.99 3 2 C3 2.66 3 3.32 3 4 C3.99 4 4.98 4 6 4 C6.33 3.34 6.66 2.68 7 2 C7.33 2.99 7.66 3.98 8 5 C5.69 5 3.38 5 1 5 C0.67 3.35 0.34 1.7 0 0 Z " fill="#D3D3D3" transform="translate(231,387)"/>
<path d="M0 0 C1.42944945 2.35438733 2.08661261 3.48032433 1.625 6.25 C1.41875 6.8275 1.2125 7.405 1 8 C1 7.01 1 6.02 1 5 C0.34 5 -0.32 5 -1 5 C-1.33 5.66 -1.66 6.32 -2 7 C-1.125 1.125 -1.125 1.125 0 0 Z " fill="#C9C9C9" transform="translate(182,136)"/>
</svg>
